<mxfile modified="2023-07-31T02:54:45.019Z" host="app.diagrams.net" agent="Mozilla/5.0 (Windows NT 10.0; Win64; x64) AppleWebKit/537.36 (KHTML, like Gecko) Chrome/112.0.0.0 Safari/537.36" etag="JZkGf8walYaYZwEyu679" version="21.6.5" type="github">
  <diagram id="C2fSY1v2SiZeoUbDoYyL" name="Page-1">
    <mxGraphModel dx="1195" dy="665" grid="0" gridSize="10" guides="1" tooltips="1" connect="1" arrows="1" fold="1" page="1" pageScale="1" pageWidth="1169" pageHeight="827" math="0" shadow="0">
      <root>
        <mxCell id="0" />
        <mxCell id="1" parent="0" />
        <mxCell id="P6J8bbtpBChGtjO2C687-1" value="输入模板图" style="rounded=1;whiteSpace=wrap;html=1;" vertex="1" parent="1">
          <mxGeometry x="308.5" y="222" width="80" height="36" as="geometry" />
        </mxCell>
        <mxCell id="P6J8bbtpBChGtjO2C687-2" value="输入待检图" style="rounded=1;whiteSpace=wrap;html=1;" vertex="1" parent="1">
          <mxGeometry x="471.5" y="222" width="80" height="36" as="geometry" />
        </mxCell>
        <mxCell id="P6J8bbtpBChGtjO2C687-3" value="输入标注" style="rounded=1;whiteSpace=wrap;html=1;" vertex="1" parent="1">
          <mxGeometry x="781.5" y="222" width="80" height="36" as="geometry" />
        </mxCell>
        <mxCell id="P6J8bbtpBChGtjO2C687-8" value="卷积模块1-1" style="rounded=1;whiteSpace=wrap;html=1;" vertex="1" parent="1">
          <mxGeometry x="308.5" y="319" width="80" height="36" as="geometry" />
        </mxCell>
        <mxCell id="P6J8bbtpBChGtjO2C687-9" value="卷积模块1-2" style="rounded=1;whiteSpace=wrap;html=1;" vertex="1" parent="1">
          <mxGeometry x="471.5" y="319" width="80" height="36" as="geometry" />
        </mxCell>
        <mxCell id="P6J8bbtpBChGtjO2C687-10" value="卷积模块2-1" style="rounded=1;whiteSpace=wrap;html=1;" vertex="1" parent="1">
          <mxGeometry x="308.5" y="449" width="80" height="36" as="geometry" />
        </mxCell>
        <mxCell id="P6J8bbtpBChGtjO2C687-11" value="卷积模块2-2" style="rounded=1;whiteSpace=wrap;html=1;" vertex="1" parent="1">
          <mxGeometry x="471.5" y="449" width="80" height="36" as="geometry" />
        </mxCell>
        <mxCell id="P6J8bbtpBChGtjO2C687-14" value="" style="endArrow=classic;html=1;rounded=0;exitX=0.5;exitY=1;exitDx=0;exitDy=0;" edge="1" parent="1" source="P6J8bbtpBChGtjO2C687-2" target="P6J8bbtpBChGtjO2C687-9">
          <mxGeometry width="50" height="50" relative="1" as="geometry">
            <mxPoint x="586.5" y="303" as="sourcePoint" />
            <mxPoint x="636.5" y="253" as="targetPoint" />
          </mxGeometry>
        </mxCell>
        <mxCell id="P6J8bbtpBChGtjO2C687-17" value="增强模块1" style="rounded=1;whiteSpace=wrap;html=1;" vertex="1" parent="1">
          <mxGeometry x="391.5" y="389" width="80" height="36" as="geometry" />
        </mxCell>
        <mxCell id="P6J8bbtpBChGtjO2C687-18" value="" style="endArrow=classic;html=1;rounded=0;exitX=0.5;exitY=1;exitDx=0;exitDy=0;entryX=0.503;entryY=0.073;entryDx=0;entryDy=0;entryPerimeter=0;" edge="1" parent="1" source="P6J8bbtpBChGtjO2C687-1" target="P6J8bbtpBChGtjO2C687-8">
          <mxGeometry width="50" height="50" relative="1" as="geometry">
            <mxPoint x="441.5" y="269" as="sourcePoint" />
            <mxPoint x="441.5" y="293" as="targetPoint" />
          </mxGeometry>
        </mxCell>
        <mxCell id="P6J8bbtpBChGtjO2C687-20" value="" style="endArrow=classic;html=1;rounded=0;exitX=0.5;exitY=1;exitDx=0;exitDy=0;" edge="1" parent="1" source="P6J8bbtpBChGtjO2C687-8" target="P6J8bbtpBChGtjO2C687-10">
          <mxGeometry width="50" height="50" relative="1" as="geometry">
            <mxPoint x="358.5" y="365" as="sourcePoint" />
            <mxPoint x="424.5" y="401" as="targetPoint" />
          </mxGeometry>
        </mxCell>
        <mxCell id="P6J8bbtpBChGtjO2C687-79" value="下采样2倍" style="edgeLabel;html=1;align=center;verticalAlign=middle;resizable=0;points=[];" vertex="1" connectable="0" parent="P6J8bbtpBChGtjO2C687-20">
          <mxGeometry x="-0.1469" y="-1" relative="1" as="geometry">
            <mxPoint as="offset" />
          </mxGeometry>
        </mxCell>
        <mxCell id="P6J8bbtpBChGtjO2C687-22" value="增强模块2" style="rounded=1;whiteSpace=wrap;html=1;" vertex="1" parent="1">
          <mxGeometry x="388.5" y="509" width="80" height="36" as="geometry" />
        </mxCell>
        <mxCell id="P6J8bbtpBChGtjO2C687-25" value="卷积模块3-1" style="rounded=1;whiteSpace=wrap;html=1;" vertex="1" parent="1">
          <mxGeometry x="307" y="579" width="80" height="36" as="geometry" />
        </mxCell>
        <mxCell id="P6J8bbtpBChGtjO2C687-26" value="卷积模块3-2" style="rounded=1;whiteSpace=wrap;html=1;" vertex="1" parent="1">
          <mxGeometry x="470" y="579" width="80" height="36" as="geometry" />
        </mxCell>
        <mxCell id="P6J8bbtpBChGtjO2C687-27" value="增强模块3" style="rounded=1;whiteSpace=wrap;html=1;" vertex="1" parent="1">
          <mxGeometry x="387" y="653" width="80" height="36" as="geometry" />
        </mxCell>
        <mxCell id="P6J8bbtpBChGtjO2C687-28" value="" style="endArrow=classic;html=1;rounded=0;exitX=0.5;exitY=1;exitDx=0;exitDy=0;entryX=0.5;entryY=0;entryDx=0;entryDy=0;" edge="1" parent="1" source="P6J8bbtpBChGtjO2C687-25" target="P6J8bbtpBChGtjO2C687-27">
          <mxGeometry width="50" height="50" relative="1" as="geometry">
            <mxPoint x="357" y="495" as="sourcePoint" />
            <mxPoint x="440" y="529" as="targetPoint" />
          </mxGeometry>
        </mxCell>
        <mxCell id="P6J8bbtpBChGtjO2C687-81" value="下采样8倍" style="edgeLabel;html=1;align=center;verticalAlign=middle;resizable=0;points=[];" vertex="1" connectable="0" parent="P6J8bbtpBChGtjO2C687-28">
          <mxGeometry x="0.0579" relative="1" as="geometry">
            <mxPoint as="offset" />
          </mxGeometry>
        </mxCell>
        <mxCell id="P6J8bbtpBChGtjO2C687-29" value="" style="endArrow=classic;html=1;rounded=0;exitX=0.5;exitY=1;exitDx=0;exitDy=0;entryX=0.5;entryY=0;entryDx=0;entryDy=0;" edge="1" parent="1" source="P6J8bbtpBChGtjO2C687-26" target="P6J8bbtpBChGtjO2C687-27">
          <mxGeometry width="50" height="50" relative="1" as="geometry">
            <mxPoint x="357" y="625" as="sourcePoint" />
            <mxPoint x="437" y="649" as="targetPoint" />
          </mxGeometry>
        </mxCell>
        <mxCell id="P6J8bbtpBChGtjO2C687-84" value="下采样8倍" style="edgeLabel;html=1;align=center;verticalAlign=middle;resizable=0;points=[];" vertex="1" connectable="0" parent="P6J8bbtpBChGtjO2C687-29">
          <mxGeometry x="-0.0537" y="-1" relative="1" as="geometry">
            <mxPoint as="offset" />
          </mxGeometry>
        </mxCell>
        <mxCell id="P6J8bbtpBChGtjO2C687-30" value="" style="endArrow=classic;html=1;rounded=0;exitX=0.5;exitY=1;exitDx=0;exitDy=0;entryX=0.5;entryY=0;entryDx=0;entryDy=0;" edge="1" parent="1" source="P6J8bbtpBChGtjO2C687-9" target="P6J8bbtpBChGtjO2C687-11">
          <mxGeometry width="50" height="50" relative="1" as="geometry">
            <mxPoint x="521.5" y="365" as="sourcePoint" />
            <mxPoint x="441.5" y="399" as="targetPoint" />
          </mxGeometry>
        </mxCell>
        <mxCell id="P6J8bbtpBChGtjO2C687-82" value="下采样2倍" style="edgeLabel;html=1;align=center;verticalAlign=middle;resizable=0;points=[];" vertex="1" connectable="0" parent="P6J8bbtpBChGtjO2C687-30">
          <mxGeometry x="-0.0782" relative="1" as="geometry">
            <mxPoint as="offset" />
          </mxGeometry>
        </mxCell>
        <mxCell id="P6J8bbtpBChGtjO2C687-31" value="" style="endArrow=classic;html=1;rounded=0;entryX=0.5;entryY=0;entryDx=0;entryDy=0;exitX=0.5;exitY=1;exitDx=0;exitDy=0;" edge="1" parent="1" source="P6J8bbtpBChGtjO2C687-11" target="P6J8bbtpBChGtjO2C687-26">
          <mxGeometry width="50" height="50" relative="1" as="geometry">
            <mxPoint x="511.5" y="499" as="sourcePoint" />
            <mxPoint x="521.5" y="459" as="targetPoint" />
          </mxGeometry>
        </mxCell>
        <mxCell id="P6J8bbtpBChGtjO2C687-83" value="下采样4倍" style="edgeLabel;html=1;align=center;verticalAlign=middle;resizable=0;points=[];" vertex="1" connectable="0" parent="P6J8bbtpBChGtjO2C687-31">
          <mxGeometry x="-0.1946" y="-1" relative="1" as="geometry">
            <mxPoint as="offset" />
          </mxGeometry>
        </mxCell>
        <mxCell id="P6J8bbtpBChGtjO2C687-32" value="" style="endArrow=classic;html=1;rounded=0;entryX=0.5;entryY=0;entryDx=0;entryDy=0;exitX=0.5;exitY=1;exitDx=0;exitDy=0;" edge="1" parent="1" source="P6J8bbtpBChGtjO2C687-10" target="P6J8bbtpBChGtjO2C687-25">
          <mxGeometry width="50" height="50" relative="1" as="geometry">
            <mxPoint x="521.5" y="495" as="sourcePoint" />
            <mxPoint x="520.5" y="589" as="targetPoint" />
          </mxGeometry>
        </mxCell>
        <mxCell id="P6J8bbtpBChGtjO2C687-80" value="下采样4倍" style="edgeLabel;html=1;align=center;verticalAlign=middle;resizable=0;points=[];" vertex="1" connectable="0" parent="P6J8bbtpBChGtjO2C687-32">
          <mxGeometry x="-0.0989" relative="1" as="geometry">
            <mxPoint as="offset" />
          </mxGeometry>
        </mxCell>
        <mxCell id="P6J8bbtpBChGtjO2C687-34" value="优化器1" style="rounded=1;whiteSpace=wrap;html=1;" vertex="1" parent="1">
          <mxGeometry x="781.5" y="319" width="80" height="36" as="geometry" />
        </mxCell>
        <mxCell id="P6J8bbtpBChGtjO2C687-35" value="上采样模块3" style="rounded=1;whiteSpace=wrap;html=1;" vertex="1" parent="1">
          <mxGeometry x="631.5" y="611" width="80" height="36" as="geometry" />
        </mxCell>
        <mxCell id="P6J8bbtpBChGtjO2C687-36" value="上采样模块2" style="rounded=1;whiteSpace=wrap;html=1;" vertex="1" parent="1">
          <mxGeometry x="631.5" y="492" width="80" height="36" as="geometry" />
        </mxCell>
        <mxCell id="P6J8bbtpBChGtjO2C687-37" value="上采样模块1" style="rounded=1;whiteSpace=wrap;html=1;" vertex="1" parent="1">
          <mxGeometry x="631.5" y="386" width="80" height="36" as="geometry" />
        </mxCell>
        <mxCell id="P6J8bbtpBChGtjO2C687-39" value="" style="curved=1;endArrow=classic;html=1;rounded=0;exitX=0.5;exitY=1;exitDx=0;exitDy=0;entryX=0.5;entryY=1;entryDx=0;entryDy=0;" edge="1" parent="1" source="P6J8bbtpBChGtjO2C687-27" target="P6J8bbtpBChGtjO2C687-35">
          <mxGeometry width="50" height="50" relative="1" as="geometry">
            <mxPoint x="550" y="699" as="sourcePoint" />
            <mxPoint x="600" y="649" as="targetPoint" />
            <Array as="points">
              <mxPoint x="626" y="687" />
            </Array>
          </mxGeometry>
        </mxCell>
        <mxCell id="P6J8bbtpBChGtjO2C687-40" value="" style="endArrow=classic;html=1;rounded=0;entryX=0.5;entryY=1;entryDx=0;entryDy=0;exitX=0.5;exitY=0;exitDx=0;exitDy=0;" edge="1" parent="1" source="P6J8bbtpBChGtjO2C687-35" target="P6J8bbtpBChGtjO2C687-36">
          <mxGeometry width="50" height="50" relative="1" as="geometry">
            <mxPoint x="358.5" y="527" as="sourcePoint" />
            <mxPoint x="357.5" y="621" as="targetPoint" />
          </mxGeometry>
        </mxCell>
        <mxCell id="P6J8bbtpBChGtjO2C687-87" value="上采样2倍" style="edgeLabel;html=1;align=center;verticalAlign=middle;resizable=0;points=[];" vertex="1" connectable="0" parent="P6J8bbtpBChGtjO2C687-40">
          <mxGeometry x="0.0714" y="-1" relative="1" as="geometry">
            <mxPoint as="offset" />
          </mxGeometry>
        </mxCell>
        <mxCell id="P6J8bbtpBChGtjO2C687-41" value="" style="endArrow=classic;html=1;rounded=0;entryX=0.5;entryY=1;entryDx=0;entryDy=0;exitX=0.5;exitY=0;exitDx=0;exitDy=0;" edge="1" parent="1" source="P6J8bbtpBChGtjO2C687-36" target="P6J8bbtpBChGtjO2C687-37">
          <mxGeometry width="50" height="50" relative="1" as="geometry">
            <mxPoint x="791.5" y="505" as="sourcePoint" />
            <mxPoint x="791.5" y="411" as="targetPoint" />
          </mxGeometry>
        </mxCell>
        <mxCell id="P6J8bbtpBChGtjO2C687-86" value="上采样4倍" style="edgeLabel;html=1;align=center;verticalAlign=middle;resizable=0;points=[];" vertex="1" connectable="0" parent="P6J8bbtpBChGtjO2C687-41">
          <mxGeometry x="-0.0041" y="-2" relative="1" as="geometry">
            <mxPoint as="offset" />
          </mxGeometry>
        </mxCell>
        <mxCell id="P6J8bbtpBChGtjO2C687-42" value="" style="curved=1;endArrow=classic;html=1;rounded=0;exitX=0.5;exitY=1;exitDx=0;exitDy=0;entryX=0.5;entryY=1;entryDx=0;entryDy=0;" edge="1" parent="1" source="P6J8bbtpBChGtjO2C687-22" target="P6J8bbtpBChGtjO2C687-36">
          <mxGeometry width="50" height="50" relative="1" as="geometry">
            <mxPoint x="421.5" y="559" as="sourcePoint" />
            <mxPoint x="665.5" y="499" as="targetPoint" />
            <Array as="points">
              <mxPoint x="549" y="575" />
              <mxPoint x="649" y="549" />
            </Array>
          </mxGeometry>
        </mxCell>
        <mxCell id="P6J8bbtpBChGtjO2C687-43" value="" style="curved=1;endArrow=classic;html=1;rounded=0;exitX=0.5;exitY=1;exitDx=0;exitDy=0;entryX=0.5;entryY=1;entryDx=0;entryDy=0;" edge="1" parent="1" source="P6J8bbtpBChGtjO2C687-17" target="P6J8bbtpBChGtjO2C687-37">
          <mxGeometry width="50" height="50" relative="1" as="geometry">
            <mxPoint x="431.5" y="429" as="sourcePoint" />
            <mxPoint x="674.5" y="369" as="targetPoint" />
            <Array as="points">
              <mxPoint x="562" y="447" />
              <mxPoint x="645" y="435" />
            </Array>
          </mxGeometry>
        </mxCell>
        <mxCell id="P6J8bbtpBChGtjO2C687-47" value="优化器2" style="rounded=1;whiteSpace=wrap;html=1;" vertex="1" parent="1">
          <mxGeometry x="781.5" y="447" width="80" height="36" as="geometry" />
        </mxCell>
        <mxCell id="P6J8bbtpBChGtjO2C687-49" value="优化器3" style="rounded=1;whiteSpace=wrap;html=1;" vertex="1" parent="1">
          <mxGeometry x="781.5" y="579" width="80" height="36" as="geometry" />
        </mxCell>
        <mxCell id="P6J8bbtpBChGtjO2C687-50" value="" style="endArrow=classic;html=1;rounded=0;" edge="1" parent="1" source="P6J8bbtpBChGtjO2C687-3">
          <mxGeometry width="50" height="50" relative="1" as="geometry">
            <mxPoint x="821.0699999999999" y="269" as="sourcePoint" />
            <mxPoint x="821.0699999999999" y="319" as="targetPoint" />
          </mxGeometry>
        </mxCell>
        <mxCell id="P6J8bbtpBChGtjO2C687-51" value="" style="endArrow=classic;html=1;rounded=0;exitX=0.5;exitY=1;exitDx=0;exitDy=0;entryX=0.5;entryY=0;entryDx=0;entryDy=0;" edge="1" parent="1" source="P6J8bbtpBChGtjO2C687-34" target="P6J8bbtpBChGtjO2C687-47">
          <mxGeometry width="50" height="50" relative="1" as="geometry">
            <mxPoint x="831.0699999999999" y="279" as="sourcePoint" />
            <mxPoint x="831.0699999999999" y="329" as="targetPoint" />
          </mxGeometry>
        </mxCell>
        <mxCell id="P6J8bbtpBChGtjO2C687-52" value="" style="endArrow=classic;html=1;rounded=0;exitX=0.5;exitY=1;exitDx=0;exitDy=0;entryX=0.5;entryY=0;entryDx=0;entryDy=0;" edge="1" parent="1" source="P6J8bbtpBChGtjO2C687-47" target="P6J8bbtpBChGtjO2C687-49">
          <mxGeometry width="50" height="50" relative="1" as="geometry">
            <mxPoint x="831.5" y="365" as="sourcePoint" />
            <mxPoint x="831.5" y="457" as="targetPoint" />
          </mxGeometry>
        </mxCell>
        <mxCell id="P6J8bbtpBChGtjO2C687-53" value="" style="curved=1;endArrow=classic;html=1;rounded=0;exitX=0.5;exitY=0;exitDx=0;exitDy=0;entryX=0.5;entryY=1;entryDx=0;entryDy=0;" edge="1" parent="1" source="P6J8bbtpBChGtjO2C687-37" target="P6J8bbtpBChGtjO2C687-34">
          <mxGeometry width="50" height="50" relative="1" as="geometry">
            <mxPoint x="691.5" y="293" as="sourcePoint" />
            <mxPoint x="741.5" y="243" as="targetPoint" />
            <Array as="points">
              <mxPoint x="723" y="328" />
              <mxPoint x="766" y="451" />
            </Array>
          </mxGeometry>
        </mxCell>
        <mxCell id="P6J8bbtpBChGtjO2C687-54" value="" style="curved=1;endArrow=classic;html=1;rounded=0;exitX=0.5;exitY=0;exitDx=0;exitDy=0;" edge="1" parent="1" source="P6J8bbtpBChGtjO2C687-36">
          <mxGeometry width="50" height="50" relative="1" as="geometry">
            <mxPoint x="671.5" y="443" as="sourcePoint" />
            <mxPoint x="821.5" y="483" as="targetPoint" />
            <Array as="points">
              <mxPoint x="724" y="428" />
              <mxPoint x="760" y="553" />
            </Array>
          </mxGeometry>
        </mxCell>
        <mxCell id="P6J8bbtpBChGtjO2C687-55" value="" style="curved=1;endArrow=classic;html=1;rounded=0;exitX=0.5;exitY=0;exitDx=0;exitDy=0;entryX=0.531;entryY=0.951;entryDx=0;entryDy=0;entryPerimeter=0;" edge="1" parent="1" source="P6J8bbtpBChGtjO2C687-35" target="P6J8bbtpBChGtjO2C687-49">
          <mxGeometry width="50" height="50" relative="1" as="geometry">
            <mxPoint x="671.5" y="579" as="sourcePoint" />
            <mxPoint x="821.5" y="613" as="targetPoint" />
            <Array as="points">
              <mxPoint x="723" y="541" />
              <mxPoint x="756" y="658" />
            </Array>
          </mxGeometry>
        </mxCell>
        <mxCell id="P6J8bbtpBChGtjO2C687-90" style="edgeStyle=orthogonalEdgeStyle;rounded=0;orthogonalLoop=1;jettySize=auto;html=1;exitX=0.5;exitY=0;exitDx=0;exitDy=0;entryX=0.5;entryY=1;entryDx=0;entryDy=0;" edge="1" parent="1" source="P6J8bbtpBChGtjO2C687-59" target="P6J8bbtpBChGtjO2C687-89">
          <mxGeometry relative="1" as="geometry" />
        </mxCell>
        <mxCell id="P6J8bbtpBChGtjO2C687-59" value="softmax" style="rounded=1;whiteSpace=wrap;html=1;" vertex="1" parent="1">
          <mxGeometry x="631.5" y="291" width="80" height="36" as="geometry" />
        </mxCell>
        <mxCell id="P6J8bbtpBChGtjO2C687-60" value="" style="endArrow=classic;html=1;rounded=0;entryX=0.5;entryY=1;entryDx=0;entryDy=0;exitX=0.5;exitY=0;exitDx=0;exitDy=0;" edge="1" parent="1" source="P6J8bbtpBChGtjO2C687-37" target="P6J8bbtpBChGtjO2C687-59">
          <mxGeometry width="50" height="50" relative="1" as="geometry">
            <mxPoint x="591" y="323" as="sourcePoint" />
            <mxPoint x="591" y="229" as="targetPoint" />
          </mxGeometry>
        </mxCell>
        <mxCell id="P6J8bbtpBChGtjO2C687-85" value="上采样8倍" style="edgeLabel;html=1;align=center;verticalAlign=middle;resizable=0;points=[];" vertex="1" connectable="0" parent="P6J8bbtpBChGtjO2C687-60">
          <mxGeometry x="0.1819" y="-1" relative="1" as="geometry">
            <mxPoint as="offset" />
          </mxGeometry>
        </mxCell>
        <mxCell id="P6J8bbtpBChGtjO2C687-61" value="" style="rounded=1;whiteSpace=wrap;html=1;fillColor=none;dashed=1;" vertex="1" parent="1">
          <mxGeometry x="599" y="340" width="145" height="358" as="geometry" />
        </mxCell>
        <mxCell id="P6J8bbtpBChGtjO2C687-62" value="" style="rounded=1;whiteSpace=wrap;html=1;fillColor=none;dashed=1;" vertex="1" parent="1">
          <mxGeometry x="258" y="278" width="335" height="429.5" as="geometry" />
        </mxCell>
        <mxCell id="P6J8bbtpBChGtjO2C687-66" value="&lt;font style=&quot;font-size: 17px;&quot;&gt;下采样&lt;/font&gt;" style="text;html=1;strokeColor=none;fillColor=none;align=center;verticalAlign=middle;whiteSpace=wrap;rounded=0;" vertex="1" parent="1">
          <mxGeometry x="282" y="653" width="80" height="28" as="geometry" />
        </mxCell>
        <mxCell id="P6J8bbtpBChGtjO2C687-67" value="&lt;span style=&quot;font-size: 17px;&quot;&gt;上采样&lt;/span&gt;" style="text;html=1;strokeColor=none;fillColor=none;align=center;verticalAlign=middle;whiteSpace=wrap;rounded=0;" vertex="1" parent="1">
          <mxGeometry x="660" y="659" width="80" height="28" as="geometry" />
        </mxCell>
        <mxCell id="P6J8bbtpBChGtjO2C687-68" value="" style="rounded=1;whiteSpace=wrap;html=1;fillColor=none;dashed=1;" vertex="1" parent="1">
          <mxGeometry x="749" y="295" width="132" height="392" as="geometry" />
        </mxCell>
        <mxCell id="P6J8bbtpBChGtjO2C687-69" value="&lt;span style=&quot;font-size: 17px;&quot;&gt;模型优化&lt;/span&gt;" style="text;html=1;strokeColor=none;fillColor=none;align=center;verticalAlign=middle;whiteSpace=wrap;rounded=0;" vertex="1" parent="1">
          <mxGeometry x="798" y="643" width="80" height="28" as="geometry" />
        </mxCell>
        <mxCell id="P6J8bbtpBChGtjO2C687-70" value="" style="rounded=1;whiteSpace=wrap;html=1;fillColor=none;" vertex="1" parent="1">
          <mxGeometry x="231" y="211.5" width="775" height="507" as="geometry" />
        </mxCell>
        <mxCell id="P6J8bbtpBChGtjO2C687-71" value="输出模型" style="rounded=1;whiteSpace=wrap;html=1;" vertex="1" parent="1">
          <mxGeometry x="913" y="449" width="80" height="36" as="geometry" />
        </mxCell>
        <mxCell id="P6J8bbtpBChGtjO2C687-72" value="" style="endArrow=classic;html=1;rounded=0;exitX=0.5;exitY=1;exitDx=0;exitDy=0;entryX=0;entryY=0.5;entryDx=0;entryDy=0;" edge="1" parent="1" source="P6J8bbtpBChGtjO2C687-34" target="P6J8bbtpBChGtjO2C687-71">
          <mxGeometry width="50" height="50" relative="1" as="geometry">
            <mxPoint x="832" y="365" as="sourcePoint" />
            <mxPoint x="832" y="457" as="targetPoint" />
          </mxGeometry>
        </mxCell>
        <mxCell id="P6J8bbtpBChGtjO2C687-73" value="" style="endArrow=classic;html=1;rounded=0;exitX=1;exitY=0.5;exitDx=0;exitDy=0;entryX=0;entryY=0.5;entryDx=0;entryDy=0;" edge="1" parent="1" source="P6J8bbtpBChGtjO2C687-47" target="P6J8bbtpBChGtjO2C687-71">
          <mxGeometry width="50" height="50" relative="1" as="geometry">
            <mxPoint x="832" y="365" as="sourcePoint" />
            <mxPoint x="908" y="477" as="targetPoint" />
            <Array as="points">
              <mxPoint x="894" y="469" />
            </Array>
          </mxGeometry>
        </mxCell>
        <mxCell id="P6J8bbtpBChGtjO2C687-74" value="" style="endArrow=classic;html=1;rounded=0;exitX=1;exitY=0.5;exitDx=0;exitDy=0;entryX=0;entryY=0.5;entryDx=0;entryDy=0;" edge="1" parent="1" target="P6J8bbtpBChGtjO2C687-71">
          <mxGeometry width="50" height="50" relative="1" as="geometry">
            <mxPoint x="861.18" y="597.7200000000001" as="sourcePoint" />
            <mxPoint x="897.9999999999997" y="467.00000000000006" as="targetPoint" />
          </mxGeometry>
        </mxCell>
        <mxCell id="P6J8bbtpBChGtjO2C687-89" value="输出缺陷" style="rounded=1;whiteSpace=wrap;html=1;" vertex="1" parent="1">
          <mxGeometry x="631.5" y="222" width="80" height="36" as="geometry" />
        </mxCell>
        <mxCell id="P6J8bbtpBChGtjO2C687-91" value="" style="curved=1;endArrow=classic;html=1;rounded=0;exitX=0.5;exitY=1;exitDx=0;exitDy=0;entryX=0.5;entryY=0;entryDx=0;entryDy=0;" edge="1" parent="1" source="P6J8bbtpBChGtjO2C687-8" target="P6J8bbtpBChGtjO2C687-17">
          <mxGeometry width="50" height="50" relative="1" as="geometry">
            <mxPoint x="356" y="359" as="sourcePoint" />
            <mxPoint x="424" y="399" as="targetPoint" />
            <Array as="points">
              <mxPoint x="368" y="377" />
            </Array>
          </mxGeometry>
        </mxCell>
        <mxCell id="P6J8bbtpBChGtjO2C687-92" value="" style="curved=1;endArrow=classic;html=1;rounded=0;exitX=0.5;exitY=1;exitDx=0;exitDy=0;entryX=0.5;entryY=0;entryDx=0;entryDy=0;" edge="1" parent="1" source="P6J8bbtpBChGtjO2C687-9" target="P6J8bbtpBChGtjO2C687-17">
          <mxGeometry width="50" height="50" relative="1" as="geometry">
            <mxPoint x="502" y="349" as="sourcePoint" />
            <mxPoint x="437" y="373" as="targetPoint" />
            <Array as="points">
              <mxPoint x="482" y="377" />
            </Array>
          </mxGeometry>
        </mxCell>
        <mxCell id="P6J8bbtpBChGtjO2C687-94" value="" style="curved=1;endArrow=classic;html=1;rounded=0;exitX=0.5;exitY=1;exitDx=0;exitDy=0;entryX=0.5;entryY=0;entryDx=0;entryDy=0;" edge="1" parent="1" source="P6J8bbtpBChGtjO2C687-10" target="P6J8bbtpBChGtjO2C687-22">
          <mxGeometry width="50" height="50" relative="1" as="geometry">
            <mxPoint x="358" y="485" as="sourcePoint" />
            <mxPoint x="441" y="519" as="targetPoint" />
            <Array as="points">
              <mxPoint x="368" y="504" />
            </Array>
          </mxGeometry>
        </mxCell>
        <mxCell id="P6J8bbtpBChGtjO2C687-95" value="" style="curved=1;endArrow=classic;html=1;rounded=0;exitX=0.5;exitY=1;exitDx=0;exitDy=0;entryX=0.5;entryY=0;entryDx=0;entryDy=0;" edge="1" parent="1" source="P6J8bbtpBChGtjO2C687-11" target="P6J8bbtpBChGtjO2C687-22">
          <mxGeometry width="50" height="50" relative="1" as="geometry">
            <mxPoint x="510" y="490" as="sourcePoint" />
            <mxPoint x="431" y="524" as="targetPoint" />
            <Array as="points">
              <mxPoint x="468" y="506" />
            </Array>
          </mxGeometry>
        </mxCell>
      </root>
    </mxGraphModel>
  </diagram>
</mxfile>
